<svg xmlns="http://www.w3.org/2000/svg" width="29.056" height="10.65" viewBox="0 0 29.056 10.65"><g transform="translate(-2754.186 663.503)"><g transform="translate(2754.186 -658.999)"><path d="M2765.384-653.623h-19.693c-.279,0-.5-.367-.5-.82s.225-.82.5-.82h19.693c.278,0,.5.367.5.82S2765.662-653.623,2765.384-653.623Z" transform="translate(-2745.187 655.263)" fill="#8c7851"/></g><g transform="translate(2773.875 -663.504)"><path d="M2803.046-652.928l8.274-4.778a.547.547,0,0,0,0-.947l-8.274-4.777a.547.547,0,0,0-.82.473v9.555A.547.547,0,0,0,2803.046-652.928Z" transform="translate(-2802.226 663.504)" fill="#8c7851"/></g></g></svg>