<svg xmlns="http://www.w3.org/2000/svg" width="36" height="36" viewBox="0 0 36 36"><g transform="translate(-1472.785 -6593)"><circle cx="18" cy="18" r="18" transform="translate(1472.785 6593)" fill="#807d79"/><g transform="translate(1479.816 6599.816)"><path d="M22.386,11.188A11.193,11.193,0,0,0,5.858,1.347H5.811A11.277,11.277,0,0,0,0,11.188a11.137,11.137,0,0,0,2.528,7.07h0a11.193,11.193,0,0,0,19.858-7.07ZM18.72,5.7a9.262,9.262,0,0,1,1.8,5.158c-.821-.084-1.7-.131-2.444-.131a22.5,22.5,0,0,0-3.89.354,18.823,18.823,0,0,0-.83-1.866A22.274,22.274,0,0,0,18.72,5.7ZM17.48,4.323a20.409,20.409,0,0,1-5.055,3.237A22.33,22.33,0,0,0,8.068,2.411,9.234,9.234,0,0,1,17.48,4.276ZM6.231,3.306A20.521,20.521,0,0,1,10.661,8.25a20.52,20.52,0,0,1-6.6,1.073,12.894,12.894,0,0,1-1.987-.1,9.327,9.327,0,0,1,4.16-5.914ZM1.865,11.113a21.393,21.393,0,0,0,2.183.121A22.321,22.321,0,0,0,11.594,9.91q.4.784.728,1.595a22.181,22.181,0,0,0-8.945,4.766,9.234,9.234,0,0,1-1.511-5.158Zm2.677,6.6a20.325,20.325,0,0,1,8.395-4.459,20.614,20.614,0,0,1,.877,5.96v.933a9.272,9.272,0,0,1-9.272-2.434Zm11.193,1.642v-.14a22.507,22.507,0,0,0-.933-6.343,20.614,20.614,0,0,1,3.265-.28,22.366,22.366,0,0,1,2.323.131,9.327,9.327,0,0,1-4.7,6.632Z" transform="translate(0 0.006)" fill="#fff"/></g></g></svg>