<svg xmlns="http://www.w3.org/2000/svg" width="35.034" height="36.785" viewBox="0 0 35.034 36.785"><g transform="translate(-11.667 -8.75)"><path d="M11.667,49.583h8.758V74.107H11.667Z" transform="translate(0 -28.572)" fill="#807d79"/><path d="M11.667,13.129A4.344,4.344,0,1,0,16.011,8.75,4.362,4.362,0,0,0,11.667,13.129Z" fill="#807d79"/><path d="M69.141,72.054H74.4a.876.876,0,0,0,.876-.876V56.465c0-6.6-3.731-9.809-8.951-9.809a7.375,7.375,0,0,0-5.553,2.225.718.718,0,0,1-1.261-.473.876.876,0,0,0-.876-.876H53.376a.876.876,0,0,0-.876.876V71.179a.876.876,0,0,0,.876.876h5.255a.876.876,0,0,0,.876-.876V58.041a4.379,4.379,0,0,1,8.758,0V71.179A.876.876,0,0,0,69.141,72.054Z" transform="translate(-28.572 -26.519)" fill="#807d79"/></g></svg>