<svg xmlns="http://www.w3.org/2000/svg" width="29.61" height="37.996" viewBox="0 0 29.61 37.996"><g transform="translate(-21.292 -7.35)"><path d="M27.462,44.761a.709.709,0,0,0,.514.585h.2a.8.8,0,0,0,.638-.355A22.7,22.7,0,0,0,32.692,37.9c.16-.585.691-2.7,1.082-4.2a.443.443,0,0,1,.709-.23,7.3,7.3,0,0,0,4.486,1.56c6.915,0,11.933-6.33,11.933-15.035,0-6.223-5.213-12.642-13.936-12.642-9.734.053-15.674,7.039-15.674,13.723,0,4.167,1.773,7.358,4.645,8.546a1.17,1.17,0,0,0,1.667-.833l.426-1.773a1.454,1.454,0,0,0-.39-1.6,5.762,5.762,0,0,1-1.294-3.9A9.7,9.7,0,0,1,36.4,11.765c5.195,0,8.422,2.961,8.422,7.73,0,6.206-2.713,10.886-6.312,10.886a3.067,3.067,0,0,1-2.411-.975,2.8,2.8,0,0,1-.5-2.447c.23-.957.532-1.95.833-2.926A18.067,18.067,0,0,0,37.462,19.3a3.262,3.262,0,0,0-3.333-3.546c-2.553,0-4.539,2.535-4.539,5.869a9.1,9.1,0,0,0,.567,3.174.887.887,0,0,1,0,.514L27.533,36.5a23.723,23.723,0,0,0-.071,8.262Z" transform="translate(0 0)" fill="#807d79"/></g></svg>