<svg xmlns="http://www.w3.org/2000/svg" width="35.904" height="40.996" viewBox="0 0 35.904 40.996"><g transform="translate(-8.782)"><path d="M43.506,22.517A10.984,10.984,0,0,0,34.2,39.308,1.708,1.708,0,1,0,37.084,37.5a7.567,7.567,0,1,1,12.811,0,1.708,1.708,0,1,0,2.887,1.828,10.984,10.984,0,0,0-9.275-16.808Z" transform="translate(-16.798 -15.923)" fill="#807d79"/><path d="M26.708,0A17.936,17.936,0,0,0,13.5,30.064a1.708,1.708,0,0,0,2.511-2.306,14.519,14.519,0,1,1,21.42,0,1.711,1.711,0,0,0,2.528,2.306A17.936,17.936,0,0,0,26.708,0Z" transform="translate(0 0)" fill="#807d79"/><path d="M58.63,87.5H54.291a3.416,3.416,0,0,0-3.416,3.792l.957,8.541a3.416,3.416,0,0,0,3.416,3.041h2.426a3.416,3.416,0,0,0,3.416-3.041l.957-8.541A3.416,3.416,0,0,0,58.63,87.5Z" transform="translate(-29.752 -61.877)" fill="#807d79"/><path d="M55.417,50.937a4.27,4.27,0,1,0,4.27-4.27A4.27,4.27,0,0,0,55.417,50.937Z" transform="translate(-32.979 -33.001)" fill="#807d79"/></g></svg>